<svg viewBox="0 0 641 909" version="1.1" xmlns="http://www.w3.org/2000/svg">
<defs>
<clipPath id="c0"><path d="M56.2 82.8V45.5H166.9V82.8Z"/></clipPath>
<clipPath id="c1"><path d="M37.9 160.7V121.8H71.8v38.9Z"/></clipPath>
<style>
.g0{fill:#F10D30;}
.g1{fill:#10385C;}
.g2{fill:#874591;}
.g3{fill:#DA1744;}
.g4{fill:#F9B229;}
.g5{fill:#F07F1A;}
.g6{fill:#72B22C;}
.g7{fill:#00743E;}
.g8{fill:#5E5A94;}
.g9{fill:#0C90CD;}
.ga{fill:none;stroke:#E8E8E8;stroke-width:1.527;stroke-miterlimit:10;}
.gb{fill:none;stroke:#3580BA;stroke-width:3.055;stroke-miterlimit:10;}
</style>
</defs>
<g clip-path="url(#c0)">
<path d="M77.2 56.1c0 5.7-4.7 10.4-10.4 10.4c-5.7 0-10.3-4.7-10.3-10.4c0-5.7 4.6-10.3 10.3-10.3c5.7 0 10.4 4.6 10.4 10.3Z" class="g0"/>
<path d="M66.8 80.2c-5.7 0-10.3 .4-10.3 .8v.8c0 .3 4.6 .7 10.3 .7c5.7 0 10.4-.4 10.4-.7V81c0-.4-4.7-.8-10.4-.8Z" class="g0"/>
<path d="M56.5 73.9V72.8c0-1.9 4.6-3.5 10.3-3.5c5.7 0 10.4 1.6 10.4 3.5v1.1c0 1.9-4.7 3.4-10.4 3.4c-5.7 0-10.3-1.5-10.3-3.4Z" class="g0"/>
<path d="M112.8 69c1.3 1.3 3 2 5 2c.6 0 2.7-.2 4.1-1l2 3.1c0 0-2.2 1.8-6.3 1.8c-3.3 0-6-1-8-3c-2.2-2-3.2-4.6-3.2-7.7c0-3.2 1-5.8 3.2-7.8c2-1.9 4.7-3 8-3c4.1 0 6.3 1.8 6.3 1.8l-2 3.1c-1.6-1-4.2-.9-4.2-.9c-2 0-3.6 .6-5 1.9c-1.3 1.3-1.9 2.9-1.9 4.9c0 1.9 .6 3.5 2 4.8Z" class="g1"/>
<path d="M127.6 74.5h4.2V57.6h8.9V74.5h4.2V53.8H127.6V74.5Z" class="g1"/>
<path fill-rule="evenodd" d="M101.3 62.8c-1.4-1.2-3.3-1.9-5.7-1.9H91.1V57.6h10.8V53.8h-15V74.5h8.7c2.4 0 4.3-.6 5.7-1.8c1.4-1.3 2.1-3 2.1-5c0-1.9-.7-3.6-2.1-4.9ZM98.1 70c-.6 .5-1.6 .8-2.8 .8H91.1V64.5h4.2c1.2 0 2.1 .3 2.8 .8c.7 .6 1 1.4 1 2.4c0 1-.3 1.8-1 2.3Z" class="g1"/>
<path fill-rule="evenodd" d="M158.7 60.9c2.4 0 4.3 .7 5.7 1.9c1.4 1.3 2.1 3 2.1 4.9c0 2-.7 3.7-2.1 5c-1.4 1.2-3.3 1.8-5.7 1.8H150V53.8h15v3.8H154.2v3.3h4.5Zm-.3 9.9c1.2 0 2.2-.3 2.8-.8c.7-.5 1-1.3 1-2.3c0-1-.3-1.8-1-2.4c-.7-.5-1.6-.8-2.8-.8h-4.2v6.3h4.2Z" class="g1"/>
</g>
<g clip-path="url(#c1)">
<path d="M47.9 141.2l-5.1 2.9l-4.6 8l19-10.9H47.9Z" class="g2"/>
<path d="M62.2 133l-5 2.9l-4.7 8l19-10.9H62.2Z" class="g3"/>
<path d="M57.2 130.1l-4.7-8v38.2l4.7-8V130.1Z" class="g4"/>
<path d="M52.5 122.1l4.7 8l5 2.9h9.3l-19-10.9Z" class="g5"/>
<path d="M52.5 138.5v21.8l4.7-8v-5.8l-4.7-8Z" class="g6"/>
<path d="M62.2 149.4l-5 2.9l-4.7 8l19-10.9H62.2Z" class="g7"/>
<path d="M38.2 130.3v21.8l4.6-8v-5.8l-4.6-8Z" class="g8"/>
<path d="M52.5 138.5v0l-14.3-8.2l4.6 8l19.4 11.1h9.3l-19-10.9Z" class="g9"/>
</g>
<path d="M38.2 184.1H603.5" class="ga"/>
<path d="M360.6 598.9H605m-242.9-1.5v67.2m-1.5-1.5H605m-1.5-65.7v67.2" class="gb"/>
</svg>